<svg aria-hidden="true" style="width:0;height:0;position:absolute;overflow:hidden" xmlns="http://www.w3.org/2000/svg"><defs><symbol id="trash-can" viewBox="0 0 32 32"><path d="M21 6h4v1H8V6h4V5c0-1.112.894-2 1.997-2h5.005c1.102 0 1.997.895 1.997 2v1zM8 8h17v18.999A3 3 0 0 1 22 30H11c-1.666 0-3-1.344-3-3.001V8zm1 1v18.009C9 28.108 9.893 29 10.992 29h11.016c1.1 0 1.992-.898 1.992-1.991V9H9zm3 2v16h1V11h-1zm4 0v16h1V11h-1zm4 0v16h1V11h-1zm-5.997-7A1 1 0 0 0 13 5v1h7V5c0-.552-.438-1-1.003-1h-4.994z"/></symbol><symbol id="trash-can1" viewBox="0 0 32 32"><path d="M23 7h4v1h-2v18.993A2.997 2.997 0 0 1 22 30H11c-1.666 0-3-1.346-3-3.007V8H6V7h6V5.005C12 3.894 12.894 3 13.997 3h5.005c1.102 0 1.997.898 1.997 2.005V7h2zM9 8v19.005C9 28.107 9.893 29 10.992 29h11.016A2 2 0 0 0 24 27.005V8H9zm3 2v17h1V10h-1zm4 0v17h1V10h-1zm4 0v17h1V10h-1zm-5.997-6A.998.998 0 0 0 13 4.999V7h7V4.999A.994.994 0 0 0 18.997 4h-4.994z"/></symbol><symbol id="download" viewBox="0 0 32 32"><path d="M15 27.25 11.75 24l-.75.75 4.5 4.5 4.5-4.5-.75-.75L16 27.25V16h-1v11.25zM14 22H7.003A4.005 4.005 0 0 1 3 18a4.007 4.007 0 0 1 3.101-3.898 6 6 0 0 1 11.56-3.094 4.5 4.5 0 0 1 7.323 3.115A4.007 4.007 0 0 1 28 18c0 2.205-1.792 4-4.003 4H17v1h7.001A5.003 5.003 0 0 0 29 18a4.997 4.997 0 0 0-3.117-4.634 5.503 5.503 0 0 0-7.789-3.813 7 7 0 0 0-13.082 3.859A5.007 5.007 0 0 0 2 18c0 2.761 2.232 5 4.999 5H14v-1z"/></symbol><symbol id="bubbles" viewBox="0 0 36 32"><path d="M34 28.161a3.65 3.65 0 0 0 2 3.256v.498a7.42 7.42 0 0 1-6.414-2.251c-.819.218-1.688.336-2.587.336-4.971 0-9-3.582-9-8s4.029-8 9-8 9 3.582 9 8c0 1.73-.618 3.331-1.667 4.64a3.635 3.635 0 0 0-.333 1.522zM16 0c8.702 0 15.781 5.644 15.995 12.672A12.262 12.262 0 0 0 27 11.625c-2.986 0-5.807 1.045-7.942 2.943-2.214 1.968-3.433 4.607-3.433 7.432 0 1.396.298 2.747.867 3.993a19.66 19.66 0 0 1-2.987-.151C10.068 29.279 5.966 29.895 2 29.986v-.841C4.142 28.096 6 26.184 6 24c0-.305-.024-.604-.068-.897C2.313 20.72 0 17.079 0 13 0 5.82 7.163 0 16 0z"/></symbol><symbol id="search" viewBox="0 0 32 32"><path d="m31.008 27.231-7.58-6.447c-.784-.705-1.622-1.029-2.299-.998a11.954 11.954 0 0 0 2.87-7.787c0-6.627-5.373-12-12-12s-12 5.373-12 12 5.373 12 12 12c2.972 0 5.691-1.081 7.787-2.87-.031.677.293 1.515.998 2.299l6.447 7.58c1.104 1.226 2.907 1.33 4.007.23s.997-2.903-.23-4.007zM12 20a8 8 0 1 1 0-16 8 8 0 0 1 0 16z"/></symbol><symbol id="spinner9" viewBox="0 0 32 32"><path d="M16 0C7.289 0 .204 6.961.005 15.624.19 8.066 5.937 2 13 2c7.18 0 13 6.268 13 14a3 3 0 1 0 6 0c0-8.837-7.163-16-16-16zm0 32c8.711 0 15.796-6.961 15.995-15.624C31.81 23.934 26.063 30 19 30c-7.18 0-13-6.268-13-14a3 3 0 1 0-6 0c0 8.837 7.163 16 16 16z"/></symbol><symbol id="equalizer" viewBox="0 0 32 32"><path d="M14 4v-.5c0-.825-.675-1.5-1.5-1.5h-5C6.675 2 6 2.675 6 3.5V4H0v4h6v.5c0 .825.675 1.5 1.5 1.5h5c.825 0 1.5-.675 1.5-1.5V8h18V4H14zM8 8V4h4v4H8zm18 5.5c0-.825-.675-1.5-1.5-1.5h-5c-.825 0-1.5.675-1.5 1.5v.5H0v4h18v.5c0 .825.675 1.5 1.5 1.5h5c.825 0 1.5-.675 1.5-1.5V18h6v-4h-6v-.5zM20 18v-4h4v4h-4zm-6 5.5c0-.825-.675-1.5-1.5-1.5h-5c-.825 0-1.5.675-1.5 1.5v.5H0v4h6v.5c0 .825.675 1.5 1.5 1.5h5c.825 0 1.5-.675 1.5-1.5V28h18v-4H14v-.5zM8 28v-4h4v4H8z"/></symbol><symbol id="cog" viewBox="0 0 32 32"><path d="M29.181 19.07c-1.679-2.908-.669-6.634 2.255-8.328l-3.145-5.447a6.022 6.022 0 0 1-3.058.829c-3.361 0-6.085-2.742-6.085-6.125h-6.289a6.023 6.023 0 0 1-.811 3.07C10.369 5.977 6.637 6.966 3.709 5.28L.565 10.727a6.023 6.023 0 0 1 2.246 2.234c1.676 2.903.672 6.623-2.241 8.319l3.145 5.447a6.022 6.022 0 0 1 3.044-.82c3.35 0 6.067 2.725 6.084 6.092h6.289a6.032 6.032 0 0 1 .811-3.038c1.676-2.903 5.399-3.894 8.325-2.219l3.145-5.447a6.032 6.032 0 0 1-2.232-2.226zM16 22.479A6.48 6.48 0 1 1 16 9.52a6.48 6.48 0 0 1 0 12.959z"/></symbol><symbol id="download2" viewBox="0 0 32 32"><path d="M28 16h-5l-7 7-7-7H4l-4 8v2h32v-2l-4-8zM0 28h32v2H0v-2zm18-18V2h-4v8H7l9 9 9-9h-7z"/></symbol><symbol id="eye" viewBox="0 0 32 32"><path d="M16 6C9.021 6 2.972 10.064 0 16c2.972 5.936 9.021 10 16 10s13.027-4.064 16-10c-2.972-5.936-9.021-10-16-10zm7.889 5.303A15.212 15.212 0 0 1 28.559 16a15.223 15.223 0 0 1-4.67 4.697C21.527 22.204 18.799 23 16 23s-5.527-.796-7.889-2.303A15.212 15.212 0 0 1 3.441 16a15.223 15.223 0 0 1 5.041-4.925 8 8 0 1 0 15.036 0c.124.074.248.15.371.228zM16 13a3 3 0 1 1-6 0 3 3 0 0 1 6 0z"/></symbol><symbol id="sun" viewBox="0 0 32 32"><path d="M16 26a2 2 0 0 1 2 2v2a2 2 0 1 1-4 0v-2a2 2 0 0 1 2-2zm0-20a2 2 0 0 1-2-2V2a2 2 0 1 1 4 0v2a2 2 0 0 1-2 2zm14 8a2 2 0 1 1 0 4h-2a2 2 0 1 1 0-4h2zM6 16a2 2 0 0 1-2 2H2a2 2 0 1 1 0-4h2a2 2 0 0 1 2 2zm19.899 7.071 1.414 1.414a2 2 0 1 1-2.828 2.828l-1.414-1.414a2 2 0 1 1 2.828-2.828zM6.101 8.929 4.687 7.515a2 2 0 1 1 2.828-2.828l1.414 1.414a2 2 0 1 1-2.828 2.828zm19.798 0a2 2 0 1 1-2.828-2.828l1.414-1.414a2 2 0 1 1 2.828 2.828l-1.414 1.414zM6.101 23.071a2 2 0 1 1 2.828 2.828l-1.414 1.414a2 2 0 1 1-2.828-2.828l1.414-1.414zM16 8a8 8 0 1 0 0 16 8 8 0 0 0 0-16zm0 13a5 5 0 1 1 .001-10.001A5 5 0 0 1 16 21z"/></symbol><symbol id="contrast" viewBox="0 0 32 32"><path d="M16 0C7.163 0 0 7.163 0 16s7.163 16 16 16 16-7.163 16-16S24.837 0 16 0zM4 16C4 9.373 9.373 4 16 4v24C9.373 28 4 22.627 4 16z"/></symbol><symbol id="heart" viewBox="0 0 32 32"><path d="M23.6 2c-3.363 0-6.258 2.736-7.599 5.594C14.659 4.736 11.764 2 8.4 2 3.763 2 0 5.764 0 10.401c0 9.433 9.516 11.906 16.001 21.232C22.131 22.365 32 19.533 32 10.401 32 5.764 28.237 2 23.6 2z"/></symbol><symbol id="circle-up" viewBox="0 0 32 32"><path d="M0 16c0 8.837 7.163 16 16 16s16-7.163 16-16S24.837 0 16 0 0 7.163 0 16zm29 0c0 7.18-5.82 13-13 13S3 23.18 3 16 8.82 3 16 3s13 5.82 13 13z"/><path d="m22.086 20.914 2.829-2.829-8.914-8.914-8.914 8.914 2.828 2.828 6.086-6.086z"/></symbol><symbol id="sort-numeric-asc" viewBox="0 0 32 32"><path d="M10 24V0H6v24H1l7 7 7-7h-5zM27 14a1 1 0 0 1-1-1V2h-1a1 1 0 0 1 0-2h2a1 1 0 0 1 1 1v12a1 1 0 0 1-1 1zM29 18h-6a1 1 0 0 0-1 1v6a1 1 0 0 0 1 1h5v4h-5a1 1 0 0 0 0 2h6a1 1 0 0 0 1-1V19a1 1 0 0 0-1-1zm-5 2h4v4h-4v-4z"/></symbol><symbol id="sort-numberic-desc" viewBox="0 0 32 32"><path d="M10 24V0H6v24H1l7 7 7-7h-5zM27 32a1 1 0 0 1-1-1V20h-1a1 1 0 0 1 0-2h2a1 1 0 0 1 1 1v12a1 1 0 0 1-1 1zM29 0h-6a1 1 0 0 0-1 1v6a1 1 0 0 0 1 1h5v4h-5a1 1 0 0 0 0 2h6a1 1 0 0 0 1-1V1a1 1 0 0 0-1-1zm-5 2h4v4h-4V2z"/></symbol><symbol id="sort-amount-asc" viewBox="0 0 32 32"><path d="M10 24V0H6v24H1l7 7 7-7h-5z"/><path d="M14 18h18v4H14v-4zM14 12h14v4H14v-4zM14 6h10v4H14V6zM14 0h6v4h-6V0z"/></symbol><symbol id="sort-amount-desc" viewBox="0 0 32 32"><path d="M10 24V0H6v24H1l7 7 7-7h-5zM14 0h18v4H14V0zM14 6h14v4H14V6zM14 12h10v4H14v-4z"/><path d="M14 18h6v4h-6v-4z"/></symbol><symbol id="x-alt" viewBox="0 0 32 32"><path d="M16 0C7.164 0 0 7.164 0 16s7.164 16 16 16 16-7.164 16-16S24.836 0 16 0zm7.914 21.086-2.828 2.828L16 18.828l-5.086 5.086-2.828-2.828L13.172 16l-5.086-5.086 2.828-2.828L16 13.172l5.086-5.086 2.828 2.828L18.828 16l5.086 5.086z"/></symbol><symbol id="equalizer1" viewBox="0 0 32 32"><path d="M18 2c0-1.1-.9-2-2-2s-2 .9-2 2v18h-2v4h2v6c0 1.1.9 2 2 2s2-.9 2-2v-6h2v-4h-2V2zM6 2c0-1.1-.9-2-2-2S2 .9 2 2v10H0v4h2v14c0 1.1.9 2 2 2s2-.9 2-2V16h2v-4H6V2zm26 6h-2V2c0-1.1-.9-2-2-2s-2 .9-2 2v6h-2v4h2v18c0 1.1.9 2 2 2s2-.9 2-2V12h2V8z"/></symbol><symbol id="settings" viewBox="0 0 24 24"><path d="M9.998 8.498c2.039 0 3.702 1.531 3.95 3.502h3.516a7.622 7.622 0 0 0-.212-1.379l2.841-1.64-2.001-3.466-2.837 1.638A7.482 7.482 0 0 0 12 5.276V1.998H7.998v3.278a7.484 7.484 0 0 0-3.256 1.876L1.906 5.515-.095 8.981l2.839 1.639c-.155.602-.247 1.228-.247 1.878s.091 1.277.247 1.878l-2.839 1.64 2.001 3.465 2.835-1.637a7.477 7.477 0 0 0 3.257 1.876v3.278H12v-7.055a3.963 3.963 0 0 1-2.002.556 4 4 0 0 1 0-8.001zm13 9.502c0-.37-.066-.722-.161-1.062l1.857-1.072-.999-1.73-1.844 1.064a4.004 4.004 0 0 0-1.853-1.061V12H18v2.139a3.981 3.981 0 0 0-1.856 1.06l-1.841-1.063-.999 1.73 1.853 1.069c-.095.342-.162.694-.162 1.065s.067.724.162 1.065l-1.853 1.069.999 1.73 1.841-1.063A3.986 3.986 0 0 0 18 21.861V24h1.998v-2.14a4.004 4.004 0 0 0 1.853-1.061l1.845 1.065.999-1.73-1.857-1.072c.094-.34.16-.692.16-1.062zm-4.002 1.998a1.998 1.998 0 1 1 0-3.996 1.998 1.998 0 0 1 0 3.996z"/></symbol></defs></svg>