<svg aria-hidden="true" style="position: absolute; width: 0; height: 0; overflow: hidden;" version="1.1" xmlns="http://www.w3.org/2000/svg" xmlns:xlink="http://www.w3.org/1999/xlink">
<defs>
<symbol id="trash-can" viewBox="0 0 32 32">
<path d="M21 6h4v1h-17v-1h4v-1c0-1.112 0.894-2 1.997-2h5.005c1.102 0 1.997 0.895 1.997 2v1zM8 8h17v18.999c0 1.658-1.343 3.001-3 3.001h-11c-1.666 0-3-1.344-3-3.001v-18.999zM9 9v18.009c0 1.099 0.893 1.991 1.992 1.991h11.016c1.1 0 1.992-0.898 1.992-1.991v-18.009h-15zM12 11v16h1v-16h-1zM16 11v16h1v-16h-1zM20 11v16h1v-16h-1zM14.003 4c-0.554 0-1.003 0.444-1.003 1v1h7v-1c0-0.552-0.438-1-1.003-1h-4.994z"></path>
</symbol>
<symbol id="trash-can1" viewBox="0 0 32 32">
<path d="M23 7h4v1h-2v18.993c0 1.671-1.343 3.007-3 3.007h-11c-1.666 0-3-1.346-3-3.007v-18.993h-2v-1h6v-1.995c0-1.111 0.894-2.005 1.997-2.005h5.005c1.102 0 1.997 0.898 1.997 2.005v1.995h2zM9 8v19.005c0 1.102 0.893 1.995 1.992 1.995h11.016c1.1 0 1.992-0.902 1.992-1.995v-19.005h-15zM12 10v17h1v-17h-1zM16 10v17h1v-17h-1zM20 10v17h1v-17h-1zM14.003 4c-0.554 0-1.003 0.443-1.003 0.999v2.001h7v-2.001c0-0.552-0.438-0.999-1.003-0.999h-4.994z"></path>
</symbol>
<symbol id="download" viewBox="0 0 32 32">
<path d="M15 27.25l-3.25-3.25-0.75 0.75 4.5 4.5 4.5-4.5-0.75-0.75-3.25 3.25v-11.25h-1v11.25zM14 22h-6.997c-2.205 0-4.003-1.791-4.003-4 0-1.895 1.325-3.488 3.101-3.898v0c-0.066-0.357-0.101-0.726-0.101-1.102 0-3.314 2.686-6 6-6 2.615 0 4.84 1.673 5.661 4.008 0.774-0.63 1.762-1.008 2.839-1.008 2.358 0 4.293 1.814 4.484 4.123v0c1.73 0.44 3.016 2.009 3.016 3.877 0 2.205-1.792 4-4.003 4h-6.997v1h7.001c2.761 0 4.999-2.244 4.999-5 0-2.096-1.287-3.892-3.117-4.634v0c-0.523-2.493-2.734-4.366-5.383-4.366-0.863 0-1.679 0.199-2.406 0.553-1.203-2.121-3.481-3.553-6.094-3.553-3.866 0-7 3.134-7 7 0 0.138 0.004 0.275 0.012 0.412v0c-1.772 0.77-3.012 2.538-3.012 4.588 0 2.761 2.232 5 4.999 5h7.001v-1z"></path>
</symbol>
<symbol id="bubbles" viewBox="0 0 36 32">
<path d="M34 28.161c0 1.422 0.813 2.653 2 3.256v0.498c-0.332 0.045-0.671 0.070-1.016 0.070-2.125 0-4.042-0.892-5.398-2.321-0.819 0.218-1.688 0.336-2.587 0.336-4.971 0-9-3.582-9-8s4.029-8 9-8c4.971 0 9 3.582 9 8 0 1.73-0.618 3.331-1.667 4.64-0.213 0.463-0.333 0.979-0.333 1.522zM16 0c8.702 0 15.781 5.644 15.995 12.672-1.537-0.685-3.237-1.047-4.995-1.047-2.986 0-5.807 1.045-7.942 2.943-2.214 1.968-3.433 4.607-3.433 7.432 0 1.396 0.298 2.747 0.867 3.993-0.163 0.004-0.327 0.007-0.492 0.007-0.849 0-1.682-0.054-2.495-0.158-3.437 3.437-7.539 4.053-11.505 4.144v-0.841c2.142-1.049 4-2.961 4-5.145 0-0.305-0.024-0.604-0.068-0.897-3.619-2.383-5.932-6.024-5.932-10.103 0-7.18 7.163-13 16-13z"></path>
</symbol>
<symbol id="search" viewBox="0 0 32 32">
<path d="M31.008 27.231l-7.58-6.447c-0.784-0.705-1.622-1.029-2.299-0.998 1.789-2.096 2.87-4.815 2.87-7.787 0-6.627-5.373-12-12-12s-12 5.373-12 12 5.373 12 12 12c2.972 0 5.691-1.081 7.787-2.87-0.031 0.677 0.293 1.515 0.998 2.299l6.447 7.58c1.104 1.226 2.907 1.33 4.007 0.23s0.997-2.903-0.23-4.007zM12 20c-4.418 0-8-3.582-8-8s3.582-8 8-8 8 3.582 8 8-3.582 8-8 8z"></path>
</symbol>
<symbol id="spinner9" viewBox="0 0 32 32">
<path d="M16 0c-8.711 0-15.796 6.961-15.995 15.624 0.185-7.558 5.932-13.624 12.995-13.624 7.18 0 13 6.268 13 14 0 1.657 1.343 3 3 3s3-1.343 3-3c0-8.837-7.163-16-16-16zM16 32c8.711 0 15.796-6.961 15.995-15.624-0.185 7.558-5.932 13.624-12.995 13.624-7.18 0-13-6.268-13-14 0-1.657-1.343-3-3-3s-3 1.343-3 3c0 8.837 7.163 16 16 16z"></path>
</symbol>
<symbol id="equalizer" viewBox="0 0 32 32">
<path d="M14 4v-0.5c0-0.825-0.675-1.5-1.5-1.5h-5c-0.825 0-1.5 0.675-1.5 1.5v0.5h-6v4h6v0.5c0 0.825 0.675 1.5 1.5 1.5h5c0.825 0 1.5-0.675 1.5-1.5v-0.5h18v-4h-18zM8 8v-4h4v4h-4zM26 13.5c0-0.825-0.675-1.5-1.5-1.5h-5c-0.825 0-1.5 0.675-1.5 1.5v0.5h-18v4h18v0.5c0 0.825 0.675 1.5 1.5 1.5h5c0.825 0 1.5-0.675 1.5-1.5v-0.5h6v-4h-6v-0.5zM20 18v-4h4v4h-4zM14 23.5c0-0.825-0.675-1.5-1.5-1.5h-5c-0.825 0-1.5 0.675-1.5 1.5v0.5h-6v4h6v0.5c0 0.825 0.675 1.5 1.5 1.5h5c0.825 0 1.5-0.675 1.5-1.5v-0.5h18v-4h-18v-0.5zM8 28v-4h4v4h-4z"></path>
</symbol>
<symbol id="cog" viewBox="0 0 32 32">
<path d="M29.181 19.070c-1.679-2.908-0.669-6.634 2.255-8.328l-3.145-5.447c-0.898 0.527-1.943 0.829-3.058 0.829-3.361 0-6.085-2.742-6.085-6.125h-6.289c0.008 1.044-0.252 2.103-0.811 3.070-1.679 2.908-5.411 3.897-8.339 2.211l-3.144 5.447c0.905 0.515 1.689 1.268 2.246 2.234 1.676 2.903 0.672 6.623-2.241 8.319l3.145 5.447c0.895-0.522 1.935-0.82 3.044-0.82 3.35 0 6.067 2.725 6.084 6.092h6.289c-0.003-1.034 0.259-2.080 0.811-3.038 1.676-2.903 5.399-3.894 8.325-2.219l3.145-5.447c-0.899-0.515-1.678-1.266-2.232-2.226zM16 22.479c-3.578 0-6.479-2.901-6.479-6.479s2.901-6.479 6.479-6.479c3.578 0 6.479 2.901 6.479 6.479s-2.901 6.479-6.479 6.479z"></path>
</symbol>
<symbol id="download2" viewBox="0 0 32 32">
<path d="M28 16h-5l-7 7-7-7h-5l-4 8v2h32v-2l-4-8zM0 28h32v2h-32v-2zM18 10v-8h-4v8h-7l9 9 9-9h-7z"></path>
</symbol>
<symbol id="eye" viewBox="0 0 32 32">
<path d="M16 6c-6.979 0-13.028 4.064-16 10 2.972 5.936 9.021 10 16 10s13.027-4.064 16-10c-2.972-5.936-9.021-10-16-10zM23.889 11.303c1.88 1.199 3.473 2.805 4.67 4.697-1.197 1.891-2.79 3.498-4.67 4.697-2.362 1.507-5.090 2.303-7.889 2.303s-5.527-0.796-7.889-2.303c-1.88-1.199-3.473-2.805-4.67-4.697 1.197-1.891 2.79-3.498 4.67-4.697 0.122-0.078 0.246-0.154 0.371-0.228-0.311 0.854-0.482 1.776-0.482 2.737 0 4.418 3.582 8 8 8s8-3.582 8-8c0-0.962-0.17-1.883-0.482-2.737 0.124 0.074 0.248 0.15 0.371 0.228v0zM16 13c0 1.657-1.343 3-3 3s-3-1.343-3-3 1.343-3 3-3 3 1.343 3 3z"></path>
</symbol>
<symbol id="sun" viewBox="0 0 32 32">
<path d="M16 26c1.105 0 2 0.895 2 2v2c0 1.105-0.895 2-2 2s-2-0.895-2-2v-2c0-1.105 0.895-2 2-2zM16 6c-1.105 0-2-0.895-2-2v-2c0-1.105 0.895-2 2-2s2 0.895 2 2v2c0 1.105-0.895 2-2 2zM30 14c1.105 0 2 0.895 2 2s-0.895 2-2 2h-2c-1.105 0-2-0.895-2-2s0.895-2 2-2h2zM6 16c0 1.105-0.895 2-2 2h-2c-1.105 0-2-0.895-2-2s0.895-2 2-2h2c1.105 0 2 0.895 2 2zM25.899 23.071l1.414 1.414c0.781 0.781 0.781 2.047 0 2.828s-2.047 0.781-2.828 0l-1.414-1.414c-0.781-0.781-0.781-2.047 0-2.828s2.047-0.781 2.828 0zM6.101 8.929l-1.414-1.414c-0.781-0.781-0.781-2.047 0-2.828s2.047-0.781 2.828 0l1.414 1.414c0.781 0.781 0.781 2.047 0 2.828s-2.047 0.781-2.828 0zM25.899 8.929c-0.781 0.781-2.047 0.781-2.828 0s-0.781-2.047 0-2.828l1.414-1.414c0.781-0.781 2.047-0.781 2.828 0s0.781 2.047 0 2.828l-1.414 1.414zM6.101 23.071c0.781-0.781 2.047-0.781 2.828 0s0.781 2.047 0 2.828l-1.414 1.414c-0.781 0.781-2.047 0.781-2.828 0s-0.781-2.047 0-2.828l1.414-1.414z"></path>
<path d="M16 8c-4.418 0-8 3.582-8 8s3.582 8 8 8c4.418 0 8-3.582 8-8s-3.582-8-8-8zM16 21c-2.761 0-5-2.239-5-5s2.239-5 5-5 5 2.239 5 5-2.239 5-5 5z"></path>
</symbol>
<symbol id="contrast" viewBox="0 0 32 32">
<path d="M16 0c-8.837 0-16 7.163-16 16s7.163 16 16 16 16-7.163 16-16-7.163-16-16-16zM4 16c0-6.627 5.373-12 12-12v24c-6.627 0-12-5.373-12-12z"></path>
</symbol>
<symbol id="heart" viewBox="0 0 32 32">
<path d="M23.6 2c-3.363 0-6.258 2.736-7.599 5.594-1.342-2.858-4.237-5.594-7.601-5.594-4.637 0-8.4 3.764-8.4 8.401 0 9.433 9.516 11.906 16.001 21.232 6.13-9.268 15.999-12.1 15.999-21.232 0-4.637-3.763-8.401-8.4-8.401z"></path>
</symbol>
<symbol id="circle-up" viewBox="0 0 32 32">
<path d="M0 16c0 8.837 7.163 16 16 16s16-7.163 16-16-7.163-16-16-16-16 7.163-16 16zM29 16c0 7.18-5.82 13-13 13s-13-5.82-13-13 5.82-13 13-13 13 5.82 13 13z"></path>
<path d="M22.086 20.914l2.829-2.829-8.914-8.914-8.914 8.914 2.828 2.828 6.086-6.086z"></path>
</symbol>
<symbol id="sort-numeric-asc" viewBox="0 0 32 32">
<path d="M10 24v-24h-4v24h-5l7 7 7-7h-5z"></path>
<path d="M27 14c-0.552 0-1-0.448-1-1v-11h-1c-0.552 0-1-0.448-1-1s0.448-1 1-1h2c0.552 0 1 0.448 1 1v12c0 0.552-0.448 1-1 1z"></path>
<path d="M29 18h-6c-0.552 0-1 0.448-1 1v6c0 0.552 0.448 1 1 1h5v4h-5c-0.552 0-1 0.448-1 1s0.448 1 1 1h6c0.552 0 1-0.448 1-1v-12c0-0.552-0.448-1-1-1zM24 20h4v4h-4v-4z"></path>
</symbol>
<symbol id="sort-numberic-desc" viewBox="0 0 32 32">
<path d="M10 24v-24h-4v24h-5l7 7 7-7h-5z"></path>
<path d="M27 32c-0.552 0-1-0.448-1-1v-11h-1c-0.552 0-1-0.448-1-1s0.448-1 1-1h2c0.552 0 1 0.448 1 1v12c0 0.552-0.448 1-1 1z"></path>
<path d="M29 0h-6c-0.552 0-1 0.448-1 1v6c0 0.552 0.448 1 1 1h5v4h-5c-0.552 0-1 0.448-1 1s0.448 1 1 1h6c0.552 0 1-0.448 1-1v-12c0-0.552-0.448-1-1-1zM24 2h4v4h-4v-4z"></path>
</symbol>
<symbol id="sort-amount-asc" viewBox="0 0 32 32">
<path d="M10 24v-24h-4v24h-5l7 7 7-7h-5z"></path>
<path d="M14 18h18v4h-18v-4z"></path>
<path d="M14 12h14v4h-14v-4z"></path>
<path d="M14 6h10v4h-10v-4z"></path>
<path d="M14 0h6v4h-6v-4z"></path>
</symbol>
<symbol id="sort-amount-desc" viewBox="0 0 32 32">
<path d="M10 24v-24h-4v24h-5l7 7 7-7h-5z"></path>
<path d="M14 0h18v4h-18v-4z"></path>
<path d="M14 6h14v4h-14v-4z"></path>
<path d="M14 12h10v4h-10v-4z"></path>
<path d="M14 18h6v4h-6v-4z"></path>
</symbol>
<symbol id="x-alt" viewBox="0 0 32 32">
<path d="M16 0c-8.836 0-16 7.164-16 16s7.164 16 16 16 16-7.164 16-16-7.164-16-16-16zM23.914 21.086l-2.828 2.828-5.086-5.086-5.086 5.086-2.828-2.828 5.086-5.086-5.086-5.086 2.828-2.828 5.086 5.086 5.086-5.086 2.828 2.828-5.086 5.086 5.086 5.086z"></path>
</symbol>
<symbol id="equalizer1" viewBox="0 0 32 32">
<path d="M18 2c0-1.1-0.9-2-2-2s-2 0.9-2 2v18h-2v4h2v6c0 1.1 0.9 2 2 2s2-0.9 2-2v-6h2v-4h-2v-18zM6 2c0-1.1-0.9-2-2-2s-2 0.9-2 2v10h-2v4h2v14c0 1.1 0.9 2 2 2s2-0.9 2-2v-14h2v-4h-2v-10zM32 8h-2v-6c0-1.1-0.9-2-2-2s-2 0.9-2 2v6h-2v4h2v18c0 1.1 0.9 2 2 2s2-0.9 2-2v-18h2v-4z"></path>
</symbol>
<symbol id="settings" viewBox="0 0 24 24">
<path d="M9.998 8.498c2.039 0 3.702 1.531 3.95 3.502h3.516c-0.033-0.472-0.097-0.935-0.212-1.379l2.841-1.64-2.001-3.466-2.837 1.638c-0.895-0.881-2.010-1.532-3.255-1.877v-3.278h-4.002v3.278c-1.245 0.344-2.361 0.996-3.256 1.876l-2.836-1.637-2.001 3.466 2.839 1.639c-0.155 0.602-0.247 1.228-0.247 1.878s0.091 1.277 0.247 1.878l-2.839 1.64 2.001 3.465 2.835-1.637c0.895 0.881 2.012 1.532 3.257 1.876v3.278h4.002v-7.055c-0.591 0.344-1.269 0.556-2.002 0.556-2.209 0-4-1.791-4-4s1.791-4.001 4-4.001zM22.998 18c0-0.37-0.066-0.722-0.161-1.062l1.857-1.072-0.999-1.73-1.844 1.064c-0.501-0.51-1.14-0.875-1.853-1.061v-2.139h-1.998v2.139c-0.715 0.184-1.354 0.549-1.856 1.060l-1.841-1.063-0.999 1.73 1.853 1.069c-0.095 0.342-0.162 0.694-0.162 1.065s0.067 0.724 0.162 1.065l-1.853 1.069 0.999 1.73 1.841-1.063c0.502 0.511 1.142 0.876 1.856 1.060v2.139h1.998v-2.14c0.713-0.186 1.352-0.551 1.853-1.061l1.845 1.065 0.999-1.73-1.857-1.072c0.094-0.34 0.16-0.692 0.16-1.062zM18.996 19.998c-1.104 0-1.998-0.895-1.998-1.998s0.895-1.998 1.998-1.998 1.998 0.895 1.998 1.998-0.894 1.998-1.998 1.998z"></path>
</symbol>
</defs>
</svg>
